<?xml version="1.0" encoding="UTF-8" standalone="no"?>
<svg width="143" height="31" viewBox="0 0 143 31" fill="none" xmlns="http://www.w3.org/2000/svg">
  <path d="M29.8 3.7C29.8 5.9 27.9 7.8 25.7 7.8C23.5 7.8 21.6 5.9 21.6 3.7C21.6 1.5 23.5 -0.4 25.7 -0.4C27.9 -0.4 29.8 1.5 29.8 3.7Z" fill="#F8F0E3"/>
  <path d="M20 14.5C20 22.1 13.9 28.3 6.3 28.3C-1.2 28.3 -7.4 22.1 -7.4 14.5C-7.4 12.2 -6.8 10.1 -5.8 8.2C-4.2 10.8 -1.2 12.5 2.1 12.5C2.7 12.5 3.2 12.4 3.7 12.3C3 13.1 2.5 14.2 2.5 15.4C2.5 18.1 4.8 20.3 7.7 20.3C10.6 20.3 12.9 18.1 12.9 15.4C12.9 13.9 12.4 12.6 11.4 11.7C12 10.8 12.4 9.7 12.4 8.5C12.4 5.9 10.7 3.8 8.3 3.3C8.8 3.2 9.3 3.1 9.9 3.1C12.4 3.1 14.5 4.7 15.2 6.9C17.6 8.7 19.2 11.5 19.2 14.5C19.2 14.6 19.2 14.6 19.2 14.7C20.1 13.3 20.5 11.7 20.5 10C20.5 6 17.2 2.8 13.1 2.8C12.6 2.8 12.1 2.8 11.7 2.9C11.7 2.8 11.8 2.7 11.9 2.6C13.3 1.3 14.1 -0.6 14.1 -1.9H6.7C6.7 -1.9 -0.7 -1.9 -0.7 -1.9C-0.7 -0.6 0.1 1.3 1.5 2.6C1.6 2.7 1.7 2.8 1.7 2.9C1.3 2.8 0.8 2.8 0.4 2.8C-3.7 2.8 -7 6 -7 10C-7 11.8 -6.5 13.5 -5.5 14.8C-5.5 14.7 -5.5 14.6 -5.5 14.5C-5.5 8 -0.2 2.8 6.2 2.8C12.6 2.8 17.9 8 17.9 14.5C17.9 21 12.6 26.2 6.2 26.2C-0.2 26.2 -5.5 21 -5.5 14.5C-5.5 14.5 -5.6 14.4 -5.6 14.3C-6.7 16.1 -7.4 18.3 -7.4 20.6C-7.4 24.6 -4.1 27.8 0 27.8C0.5 27.8 1 27.7 1.4 27.7C1.3 27.8 1.2 27.9 1.1 28C-0.3 29.3 -1.1 31.2 -1.1 32.5H6.3C6.3 32.5 13.7 32.5 13.7 32.5C13.7 31.2 12.9 29.3 11.5 28C11.4 27.9 11.3 27.8 11.3 27.7C11.7 27.7 12.2 27.8 12.7 27.8C14.5 27.8 16.2 27.1 17.5 26C20 23.8 21.7 20.7 21.7 17.3C21.7 16.3 21.5 15.3 21.2 14.5H20V14.5Z" fill="#CEB897"/>
  <path d="M60.8 19.7V15.6L55.5 15.6V22.5L57.9 22.5V19.7L59.2 19.7L61.2 22.5H64.1L61.6 19.4C61.8 19.3 62 19.3 62.2 19.2C62.8 19 62.9 18.7 62.9 18.2V18.1C62.8 17.1 62.3 17.9 61.2 18.1L60.8 19.7ZM57.5 17.8L58.9 17.8C59.3 17.8 59.6 17.9 59.6 18.2C59.6 18.5 59.3 18.6 58.9 18.6L57.5 18.6V17.8Z" fill="white"/>
  <path d="M69.9 15.5C67.1 15.5 64.9 17.1 64.9 18.9C64.9 20.7 67.1 22.3 69.9 22.3C72.7 22.3 74.9 20.7 74.9 18.9C74.9 17.1 72.7 15.5 69.9 15.5ZM69.9 20.5C68.8 20.5 67.7 19.7 67.7 18.8C67.7 17.9 68.8 17.1 69.9 17.1C71 17.1 72.1 17.9 72.1 18.8C72.1 19.7 71 20.5 69.9 20.5Z" fill="white"/>
  <path d="M53.1 18.9C53.1 17.2 51.7 15.5 50.1 15.5L43.8 15.5V22.5H49.8C51.5 22.5 53.1 20.9 53.1 18.9ZM49.8 20.5L46.1 20.5V17.2H49.8C50.6 17.2 51 18 51 18.9C51 19.7 50.6 20.5 49.8 20.5Z" fill="white"/>
  <path d="M112.3 4.4H124.9V8.3H119.5V28H115.7V8.3H112.3V4.4Z" fill="white"/>
  <path d="M128.1 10.9H131.7V14.4C132.6 12.1 134.3 10.7 136.9 10.7C140.3 10.7 142.7 12.8 142.7 17.2V28H139.1V18.1C139.1 15.3 138 13.9 135.7 13.9C133.4 13.9 131.7 15.7 131.7 18.7V28H128.1V10.9Z" fill="white"/>
  <path d="M78.3 4.4V18.7C78.3 23.7 75.6 28.5 69.4 28.5C65 28.5 62.2 25.8 62.2 22H65.9C65.9 24 67.3 25.4 69.4 25.4C72.5 25.4 74.7 22.9 74.7 18.7V4.4H78.3Z" fill="white"/>
  <path d="M101.9 4.4H105.5V11C106.6 10.2 108 9.9 109.5 9.9C113.9 9.9 116.6 13.1 116.6 18.9C116.6 24.7 113.7 27.5 109.5 27.5C107.8 27.5 106.3 27 105.2 26V27.5H101.9V4.4ZM108.9 24.2C111.2 24.2 113.1 22.1 113.1 18.9C113.1 15.6 111.2 13.2 108.9 13.2C107.4 13.2 106.2 13.9 105.5 14.9V22.4C106.2 23.5 107.3 24.2 108.9 24.2Z" fill="white"/>
  <path d="M90.8 10.9H94.4V28H90.8V25.5C89.5 27 87.7 28.1 85.6 28.1C81.8 28.1 79 25.6 79 20.5V10.9H82.6V19.7C82.6 22.8 83.9 24.5 86.4 24.5C88.9 24.5 90.8 22.1 90.8 19V10.9Z" fill="white"/>
</svg>