<svg width="48" height="48" viewBox="0 0 48 48" fill="none" xmlns="http://www.w3.org/2000/svg">
  <rect width="48" height="48" rx="8" fill="#5D1C34"/>
  <path d="M10.2 12L17 33H14L9.2 16.5L4.4 33H2L9.2 12H10.2Z" fill="white"/>
  <path d="M24 18V33H21V18H14V15H30V18H24ZM35.3 33.4C33.8 33.4 32.5 33.1 31.3 32.5C30.1 31.9 29.2 31 28.5 29.8C27.8 28.6 27.5 27.2 27.5 25.5C27.5 23.8 27.8 22.4 28.5 21.2C29.2 20 30.1 19.1 31.3 18.5C32.5 17.9 33.8 17.6 35.3 17.6C36.8 17.6 38.1 17.9 39.3 18.5C40.5 19.1 41.4 20 42.1 21.2C42.8 22.4 43.1 23.8 43.1 25.5C43.1 27.2 42.8 28.6 42.1 29.8C41.4 31 40.5 31.9 39.3 32.5C38.1 33.1 36.8 33.4 35.3 33.4Z" fill="white"/>
  <circle cx="44" cy="25" r="3" fill="#A67D44"/>
</svg>
