<svg width="16" height="16" viewBox="0 0 16 16" fill="none" xmlns="http://www.w3.org/2000/svg">
  <!-- Stylized "V" from Vyna -->
  <path d="M4.4 1.4L7.5 11.4H6.4L3.9 3.1L1.3 11.4H0.4L3.9 1.4H4.4Z" fill="#5D1C34" />
  
  <!-- Decorative dot/accent -->
  <circle cx="13" cy="8" r="2" fill="#A67D44" />
  
  <!-- The remaining letters "yna" simplified for smaller size -->
  <path d="M12 5.6V11.4H11V5.6H8.5V4.6H14.5V5.6H12ZM9.2 8C9.2 7.4 9.3 6.9 9.6 6.5C9.9 6.1 10.3 5.7 10.8 5.5C11.3 5.3 11.9 5.2 12.5 5.2C13.1 5.2 13.7 5.3 14.2 5.5C14.7 5.7 15.1 6.1 15.4 6.5C15.7 6.9 15.8 7.4 15.8 8C15.8 8.6 15.7 9.1 15.4 9.5C15.1 9.9 14.7 10.3 14.2 10.5C13.7 10.7 13.1 10.8 12.5 10.8C11.9 10.8 11.3 10.7 10.8 10.5C10.3 10.3 9.9 9.9 9.6 9.5C9.3 9.1 9.2 8.6 9.2 8Z" fill="#5D1C34" />
</svg>