<svg width="48" height="48" viewBox="0 0 48 48" fill="none" xmlns="http://www.w3.org/2000/svg">
  <!-- Stylized "V" from Vyna -->
  <path d="M14 8L22 36H18L12 14L6 36H3L12 8H14Z" fill="#5D1C34" />
  
  <!-- Decorative dot/accent -->
  <circle cx="40" cy="24" r="5" fill="#A67D44" />
  
  <!-- The letters "yna" simplified for medium size -->
  <path d="M32 18V36H28V18H20V14H40V18H32ZM18 24C18 22 18.5 20 19.5 18.5C20.5 17 21.8 16 23.5 15C25.2 14 27 13.5 29 13.5C31 13.5 32.8 14 34.5 15C36.2 16 37.5 17 38.5 18.5C39.5 20 40 22 40 24C40 26 39.5 28 38.5 29.5C37.5 31 36.2 32 34.5 33C32.8 34 31 34.5 29 34.5C27 34.5 25.2 34 23.5 33C21.8 32 20.5 31 19.5 29.5C18.5 28 18 26 18 24Z" fill="#5D1C34" />
</svg>