<svg width="128" height="128" viewBox="0 0 128 128" fill="none" xmlns="http://www.w3.org/2000/svg">
  <rect width="128" height="128" rx="12" fill="#5D1C34"/>
  <path d="M44.9513 89.4773V38.5227H62.7969C67.4015 38.5227 71.2514 39.3295 74.3467 40.9432C77.4608 42.5379 79.7835 44.7348 81.3146 47.5341C82.8457 50.3144 83.6113 53.5682 83.6113 57.2955C83.6113 61.0417 82.8268 64.2955 81.2579 67.0568C79.689 69.8182 77.3284 71.9867 74.1767 73.5625C71.044 75.1383 67.1563 75.9261 62.5135 75.9261H53.1583V89.4773H44.9513ZM53.1583 69.1023H61.8913C64.8025 69.1023 67.2253 68.6174 69.1608 67.6477C71.0963 66.6591 72.5608 65.2235 73.5527 63.3409C74.5635 61.4583 75.069 59.2992 75.069 56.8636C75.069 54.4659 74.5635 52.3352 73.5527 50.4716C72.5608 48.608 71.0963 47.1913 69.1608 46.2216C67.2253 45.233 64.8025 44.7386 61.8913 44.7386H53.1583V69.1023Z" fill="white"/>
  <path d="M64 104C88.8528 104 109 83.8528 109 59C109 34.1472 88.8528 14 64 14C39.1472 14 19 34.1472 19 59C19 83.8528 39.1472 104 64 104Z" stroke="#A67D44" stroke-width="4"/>
</svg>