<svg xmlns="http://www.w3.org/2000/svg" width="18" height="18" viewBox="0 0 186.69 190.5">
  <path fill="#4285f4" d="M95.25 77.932v36.888h51.262c-2.251 11.863-9.006 21.908-19.137 28.662l30.913 23.986c18.011-16.625 28.402-41.044 28.402-70.052 0-6.754-.606-13.249-1.732-19.483z"/>
  <path fill="#34a853" d="M41.869 113.38l-6.972 5.337-24.679 19.223c15.673 31.086 47.796 52.561 85.03 52.561 25.717 0 47.278-8.486 63.038-23.033l-30.913-23.986c-8.486 5.715-19.31 9.179-32.125 9.179-24.765 0-45.806-16.712-53.34-39.226z"/>
  <path fill="#fbbc05" d="M41.829 65.354c-3.37 10.062-5.337 20.789-5.337 31.954 0 11.173 1.97 21.886 5.337 31.949l31.659-24.554c-2.66-7.88-4.214-16.256-4.214-25.092 0-8.828 1.554-17.203 4.214-25.092z"/>
  <path fill="#ea4335" d="M95.248 40.929c14.105 0 26.738 4.84 36.813 12.979l27.328-27.398C142.384 11.583 120.903.5 95.248.5 58.014.5 25.891 21.975 10.218 53.07l31.661 24.553c7.524-22.514 28.566-39.226 53.339-39.226z"/>
</svg>